<svg xmlns="http://www.w3.org/2000/svg" xmlns:xlink="http://www.w3.org/1999/xlink" width="240" zoomAndPan="magnify" viewBox="0 0 180 30.000001" height="40" preserveAspectRatio="xMidYMid meet" version="1.0"><defs><g/><clipPath id="b10f424a17"><path d="M 142 3 L 158.226562 3 L 158.226562 27 L 142 27 Z M 142 3 " clip-rule="nonzero"/></clipPath><clipPath id="532ce9764a"><path d="M 10.160156 3 L 26 3 L 26 27 L 10.160156 27 Z M 10.160156 3 " clip-rule="nonzero"/></clipPath></defs><g fill="#d9d9d9" fill-opacity="1"><g transform="translate(25.900438, 21.92229)"><g><path d="M 6.515625 0.21875 C 5.492188 0.21875 4.585938 0.09375 3.796875 -0.15625 C 3.003906 -0.414062 2.34375 -0.75 1.8125 -1.15625 C 1.28125 -1.5625 0.875 -2.007812 0.59375 -2.5 L 2.1875 -4.453125 L 2.453125 -4.453125 C 2.890625 -3.796875 3.445312 -3.269531 4.125 -2.875 C 4.8125 -2.488281 5.609375 -2.296875 6.515625 -2.296875 C 7.296875 -2.296875 7.882812 -2.460938 8.28125 -2.796875 C 8.675781 -3.128906 8.875 -3.582031 8.875 -4.15625 C 8.875 -4.5 8.8125 -4.789062 8.6875 -5.03125 C 8.5625 -5.269531 8.347656 -5.472656 8.046875 -5.640625 C 7.753906 -5.804688 7.359375 -5.945312 6.859375 -6.0625 L 4.96875 -6.5 C 3.644531 -6.800781 2.65625 -7.300781 2 -8 C 1.351562 -8.707031 1.03125 -9.617188 1.03125 -10.734375 C 1.03125 -11.566406 1.238281 -12.296875 1.65625 -12.921875 C 2.070312 -13.554688 2.675781 -14.046875 3.46875 -14.390625 C 4.269531 -14.742188 5.222656 -14.921875 6.328125 -14.921875 C 7.460938 -14.921875 8.429688 -14.769531 9.234375 -14.46875 C 10.046875 -14.175781 10.734375 -13.722656 11.296875 -13.109375 L 9.859375 -11.125 L 9.59375 -11.125 C 9.175781 -11.5625 8.695312 -11.890625 8.15625 -12.109375 C 7.625 -12.328125 7.015625 -12.4375 6.328125 -12.4375 C 5.523438 -12.4375 4.914062 -12.296875 4.5 -12.015625 C 4.09375 -11.734375 3.890625 -11.34375 3.890625 -10.84375 C 3.890625 -10.382812 4.035156 -10.015625 4.328125 -9.734375 C 4.617188 -9.460938 5.125 -9.25 5.84375 -9.09375 L 7.765625 -8.6875 C 9.191406 -8.382812 10.226562 -7.875 10.875 -7.15625 C 11.519531 -6.4375 11.84375 -5.5 11.84375 -4.34375 C 11.84375 -3.414062 11.644531 -2.613281 11.25 -1.9375 C 10.851562 -1.257812 10.253906 -0.726562 9.453125 -0.34375 C 8.660156 0.03125 7.679688 0.21875 6.515625 0.21875 Z M 6.515625 0.21875 "/></g></g></g><g fill="#d9d9d9" fill-opacity="1"><g transform="translate(38.539709, 21.92229)"><g><path d="M 4.328125 0.21875 C 3.617188 0.21875 3 0.0859375 2.46875 -0.171875 C 1.945312 -0.441406 1.546875 -0.828125 1.265625 -1.328125 C 0.984375 -1.835938 0.84375 -2.445312 0.84375 -3.15625 C 0.84375 -3.8125 0.984375 -4.363281 1.265625 -4.8125 C 1.546875 -5.257812 1.984375 -5.625 2.578125 -5.90625 C 3.171875 -6.195312 3.941406 -6.421875 4.890625 -6.578125 C 5.554688 -6.679688 6.0625 -6.796875 6.40625 -6.921875 C 6.75 -7.046875 6.976562 -7.1875 7.09375 -7.34375 C 7.21875 -7.507812 7.28125 -7.71875 7.28125 -7.96875 C 7.28125 -8.320312 7.15625 -8.59375 6.90625 -8.78125 C 6.664062 -8.96875 6.253906 -9.0625 5.671875 -9.0625 C 5.054688 -9.0625 4.46875 -8.921875 3.90625 -8.640625 C 3.351562 -8.367188 2.875 -8.007812 2.46875 -7.5625 L 2.265625 -7.5625 L 1.09375 -9.328125 C 1.65625 -9.953125 2.34375 -10.4375 3.15625 -10.78125 C 3.96875 -11.132812 4.851562 -11.3125 5.8125 -11.3125 C 7.28125 -11.3125 8.34375 -11 9 -10.375 C 9.664062 -9.75 10 -8.863281 10 -7.71875 L 10 -2.890625 C 10 -2.398438 10.210938 -2.15625 10.640625 -2.15625 C 10.804688 -2.15625 10.972656 -2.1875 11.140625 -2.25 L 11.28125 -2.203125 L 11.484375 -0.265625 C 11.328125 -0.160156 11.109375 -0.078125 10.828125 -0.015625 C 10.554688 0.046875 10.257812 0.078125 9.9375 0.078125 C 9.269531 0.078125 8.75 -0.046875 8.375 -0.296875 C 8 -0.554688 7.734375 -0.957031 7.578125 -1.5 L 7.359375 -1.515625 C 6.816406 -0.359375 5.804688 0.21875 4.328125 0.21875 Z M 5.21875 -1.875 C 5.851562 -1.875 6.363281 -2.085938 6.75 -2.515625 C 7.144531 -2.953125 7.34375 -3.554688 7.34375 -4.328125 L 7.34375 -5.453125 L 7.140625 -5.5 C 6.972656 -5.363281 6.753906 -5.25 6.484375 -5.15625 C 6.210938 -5.0625 5.820312 -4.972656 5.3125 -4.890625 C 4.707031 -4.785156 4.269531 -4.609375 4 -4.359375 C 3.738281 -4.117188 3.609375 -3.773438 3.609375 -3.328125 C 3.609375 -2.847656 3.75 -2.484375 4.03125 -2.234375 C 4.3125 -1.992188 4.707031 -1.875 5.21875 -1.875 Z M 5.21875 -1.875 "/></g></g></g><g fill="#d9d9d9" fill-opacity="1"><g transform="translate(50.243141, 21.92229)"><g><path d="M 4.328125 0.21875 C 3.617188 0.21875 3 0.0859375 2.46875 -0.171875 C 1.945312 -0.441406 1.546875 -0.828125 1.265625 -1.328125 C 0.984375 -1.835938 0.84375 -2.445312 0.84375 -3.15625 C 0.84375 -3.8125 0.984375 -4.363281 1.265625 -4.8125 C 1.546875 -5.257812 1.984375 -5.625 2.578125 -5.90625 C 3.171875 -6.195312 3.941406 -6.421875 4.890625 -6.578125 C 5.554688 -6.679688 6.0625 -6.796875 6.40625 -6.921875 C 6.75 -7.046875 6.976562 -7.1875 7.09375 -7.34375 C 7.21875 -7.507812 7.28125 -7.71875 7.28125 -7.96875 C 7.28125 -8.320312 7.15625 -8.59375 6.90625 -8.78125 C 6.664062 -8.96875 6.253906 -9.0625 5.671875 -9.0625 C 5.054688 -9.0625 4.46875 -8.921875 3.90625 -8.640625 C 3.351562 -8.367188 2.875 -8.007812 2.46875 -7.5625 L 2.265625 -7.5625 L 1.09375 -9.328125 C 1.65625 -9.953125 2.34375 -10.4375 3.15625 -10.78125 C 3.96875 -11.132812 4.851562 -11.3125 5.8125 -11.3125 C 7.28125 -11.3125 8.34375 -11 9 -10.375 C 9.664062 -9.75 10 -8.863281 10 -7.71875 L 10 -2.890625 C 10 -2.398438 10.210938 -2.15625 10.640625 -2.15625 C 10.804688 -2.15625 10.972656 -2.1875 11.140625 -2.25 L 11.28125 -2.203125 L 11.484375 -0.265625 C 11.328125 -0.160156 11.109375 -0.078125 10.828125 -0.015625 C 10.554688 0.046875 10.257812 0.078125 9.9375 0.078125 C 9.269531 0.078125 8.75 -0.046875 8.375 -0.296875 C 8 -0.554688 7.734375 -0.957031 7.578125 -1.5 L 7.359375 -1.515625 C 6.816406 -0.359375 5.804688 0.21875 4.328125 0.21875 Z M 5.21875 -1.875 C 5.851562 -1.875 6.363281 -2.085938 6.75 -2.515625 C 7.144531 -2.953125 7.34375 -3.554688 7.34375 -4.328125 L 7.34375 -5.453125 L 7.140625 -5.5 C 6.972656 -5.363281 6.753906 -5.25 6.484375 -5.15625 C 6.210938 -5.0625 5.820312 -4.972656 5.3125 -4.890625 C 4.707031 -4.785156 4.269531 -4.609375 4 -4.359375 C 3.738281 -4.117188 3.609375 -3.773438 3.609375 -3.328125 C 3.609375 -2.847656 3.75 -2.484375 4.03125 -2.234375 C 4.3125 -1.992188 4.707031 -1.875 5.21875 -1.875 Z M 5.21875 -1.875 "/></g></g></g><g fill="#d9d9d9" fill-opacity="1"><g transform="translate(61.946572, 21.92229)"><g><path d="M 5.484375 0.21875 C 4.609375 0.21875 3.832031 0.00390625 3.15625 -0.421875 C 2.476562 -0.847656 1.945312 -1.492188 1.5625 -2.359375 C 1.1875 -3.222656 1 -4.285156 1 -5.546875 C 1 -6.816406 1.191406 -7.878906 1.578125 -8.734375 C 1.972656 -9.597656 2.515625 -10.242188 3.203125 -10.671875 C 3.898438 -11.097656 4.707031 -11.3125 5.625 -11.3125 C 6.3125 -11.3125 6.910156 -11.191406 7.421875 -10.953125 C 7.929688 -10.710938 8.359375 -10.34375 8.703125 -9.84375 L 8.921875 -9.890625 L 8.921875 -15.5625 L 11.703125 -15.5625 L 11.703125 0 L 8.921875 0 L 8.921875 -1.4375 L 8.703125 -1.484375 C 8.390625 -0.953125 7.960938 -0.535156 7.421875 -0.234375 C 6.890625 0.0664062 6.242188 0.21875 5.484375 0.21875 Z M 6.390625 -2.15625 C 7.171875 -2.15625 7.789062 -2.429688 8.25 -2.984375 C 8.707031 -3.546875 8.9375 -4.398438 8.9375 -5.546875 C 8.9375 -6.679688 8.707031 -7.53125 8.25 -8.09375 C 7.789062 -8.664062 7.171875 -8.953125 6.390625 -8.953125 C 5.566406 -8.953125 4.9375 -8.675781 4.5 -8.125 C 4.070312 -7.582031 3.859375 -6.722656 3.859375 -5.546875 C 3.859375 -4.378906 4.070312 -3.519531 4.5 -2.96875 C 4.9375 -2.425781 5.566406 -2.15625 6.390625 -2.15625 Z M 6.390625 -2.15625 "/></g></g></g><g fill="#d9d9d9" fill-opacity="1"><g transform="translate(103.80781, 21.92229)"><g><path d="M 14.125 0 L 11.0625 0 L 9.953125 -3.390625 L 4.3125 -3.390625 L 3.203125 0 L 0.21875 0 L 5.296875 -14.71875 L 9.03125 -14.71875 Z M 7 -11.640625 L 5.109375 -5.84375 L 9.140625 -5.84375 L 7.25 -11.640625 Z M 7 -11.640625 "/></g></g></g><g fill="#d9d9d9" fill-opacity="1"><g transform="translate(118.147778, 21.92229)"><g><path d="M 1.59375 0 L 1.59375 -11.09375 L 4.3125 -11.09375 L 4.3125 -9.453125 L 4.515625 -9.40625 C 4.785156 -10.019531 5.140625 -10.472656 5.578125 -10.765625 C 6.015625 -11.054688 6.546875 -11.203125 7.171875 -11.203125 C 7.796875 -11.203125 8.273438 -11.09375 8.609375 -10.875 L 8.125 -8.46875 L 7.921875 -8.4375 C 7.734375 -8.507812 7.554688 -8.5625 7.390625 -8.59375 C 7.222656 -8.625 7.019531 -8.640625 6.78125 -8.640625 C 6 -8.640625 5.40625 -8.363281 5 -7.8125 C 4.59375 -7.269531 4.390625 -6.394531 4.390625 -5.1875 L 4.390625 0 Z M 1.59375 0 "/></g></g></g><g fill="#d9d9d9" fill-opacity="1"><g transform="translate(126.852401, 21.92229)"><g><path d="M 6.46875 0.21875 C 5.394531 0.21875 4.445312 -0.00390625 3.625 -0.453125 C 2.800781 -0.898438 2.15625 -1.554688 1.6875 -2.421875 C 1.226562 -3.285156 1 -4.328125 1 -5.546875 C 1 -6.765625 1.226562 -7.804688 1.6875 -8.671875 C 2.15625 -9.535156 2.796875 -10.191406 3.609375 -10.640625 C 4.429688 -11.085938 5.367188 -11.3125 6.421875 -11.3125 C 8.765625 -11.3125 10.265625 -10.460938 10.921875 -8.765625 L 9 -7.390625 L 8.796875 -7.390625 C 8.566406 -7.921875 8.269531 -8.3125 7.90625 -8.5625 C 7.539062 -8.820312 7.046875 -8.953125 6.421875 -8.953125 C 5.617188 -8.953125 4.988281 -8.671875 4.53125 -8.109375 C 4.082031 -7.554688 3.859375 -6.703125 3.859375 -5.546875 C 3.859375 -4.398438 4.085938 -3.546875 4.546875 -2.984375 C 5.003906 -2.429688 5.644531 -2.15625 6.46875 -2.15625 C 7.070312 -2.15625 7.582031 -2.316406 8 -2.640625 C 8.425781 -2.960938 8.726562 -3.429688 8.90625 -4.046875 L 9.125 -4.0625 L 11.09375 -2.984375 C 10.8125 -2.035156 10.289062 -1.265625 9.53125 -0.671875 C 8.769531 -0.078125 7.75 0.21875 6.46875 0.21875 Z M 6.46875 0.21875 "/></g></g></g><g fill="#5e17eb" fill-opacity="1"><g transform="translate(78.736786, 28.58097)"><g><path d="M 7.84375 0 L 0.5625 -1.921875 L 2.109375 -7.4375 L 5.125 -6.640625 L 9.0625 -13.28125 L 5.25 -19.765625 L 2.21875 -18.984375 L 0.671875 -24.484375 L 7.921875 -26.40625 L 7.96875 -26.40625 L 12.375 -18.9375 L 16.75 -26.40625 L 16.796875 -26.40625 L 24.03125 -24.484375 L 22.484375 -18.984375 L 19.46875 -19.765625 L 15.65625 -13.28125 L 19.578125 -6.640625 L 22.609375 -7.4375 L 24.15625 -1.921875 L 16.875 0 L 12.375 -7.65625 Z M 7.84375 0 "/></g></g></g><g clip-path="url(#b10f424a17)"><path fill="#5e17eb" d="M 158.203125 14.800781 L 147.261719 3.746094 C 145.148438 1.613281 140.808594 5.5625 143.351562 8.046875 L 150.273438 14.800781 L 143.128906 21.445312 C 140.953125 23.464844 144.984375 27.617188 147.148438 25.519531 Z M 158.203125 14.800781 " fill-opacity="1" fill-rule="nonzero"/></g><g clip-path="url(#532ce9764a)"><path fill="#5e17eb" d="M 10.183594 14.429688 L 21.125 25.480469 C 23.238281 27.617188 27.578125 23.667969 25.03125 21.183594 L 18.109375 14.429688 L 25.257812 7.785156 C 27.433594 5.761719 23.402344 1.613281 21.238281 3.710938 Z M 10.183594 14.429688 " fill-opacity="1" fill-rule="nonzero"/></g></svg>